<svg version="1" xmlns="http://www.w3.org/2000/svg" width="400" height="400" viewBox="0 0 300.000000 300.000000"><path d="M189 35.7c-3.6 4.7-7 9-7.5 9.7-.6.6-5.1 6.3-10 12.6s-9 11.7-9.2 12c-.8.9-10.4.6-11.2-.4-.4-.6-1.5-5.2-2.5-10.1-2.1-10.7-5.2-20.5-7.1-22.4-1.1-1.2-1.8-1-4.7.7-2.5 1.6-4.6 2-8.1 1.7l-4.6-.4.5 16.4.6 16.3-5.9-1.2c-9.5-2-18.7-1.4-22.5 1.4-2.6 1.9-4.5 2.3-10.6 2.5-8.5.1-20.1-1-34.6-3.6-7.7-1.3-10.3-.2-21.7 8.9-10.5 8.3-19.1 20.4-21.3 29.7-.6 2.6.3 2 8.1-5.7l8.8-8.6 19-5.6c10.5-3.1 21.8-6.4 25.1-7.5 8.4-2.5 11.8-2.1 21.8 2.7 4.7 2.3 8.6 4.2 8.6 4.4 0 .2-1.5.4-3.3.5-8.7.5-22.3 5.6-31.4 11.7-4.2 2.9-16.3 14.5-16.3 15.7 0 .4-.6 1.4-1.4 2.1-4.4 4.4-14.2 27.3-16.1 37.8-4.9 26.1-3.4 44.5 5.2 61.9 12 24.2 37.4 44.4 71.2 56.5 8.7 3.1 5 2.9 39.4 2.2 35.4-.8 43.6-2.4 63-12.4 33-16.8 57.4-52.6 64.8-95.2 1-5.8 1.2-19.4.4-24.5-1.3-7.5-2.8-13.3-4.6-17.2-1-2.4-1.9-4.6-1.9-5 0-1.2-7.1-12.6-10.5-16.8-11.8-14.8-31-27.7-50-33.8-5.3-1.7-7.9-3-7.6-3.9.1-.7.5-4 .8-7.3l.6-6-2.4 2c-1.3 1.1-2.6 2.2-2.9 2.5-3.5 3.5-12.4 10.2-13.9 10.5-1.7.3-1.1-2.1 5.4-21.3 4.1-11.9 7.3-21.7 7.2-21.8-.1-.1-3.1 3.6-6.7 8.3z"/></svg>